<svg width="372" height="477" viewBox="0 0 372 477" fill="none" xmlns="http://www.w3.org/2000/svg">
<path d="M25.2503 1.42106C24.5532 1.66825 24.1889 2.43273 24.4366 3.12857C24.6841 3.82441 25.4499 4.1881 26.147 3.94091L25.2503 1.42106ZM15.6469 9.38692C16.2485 8.95732 16.3874 8.12219 15.9571 7.52158C15.5268 6.92091 14.6902 6.78232 14.0885 7.21185L15.6469 9.38692ZM8.69284 11.8634C8.18275 12.3981 8.20338 13.2444 8.73905 13.7537C9.27472 14.263 10.1225 14.2423 10.6326 13.7076L8.69284 11.8634ZM4.53717 23.5266C4.77701 22.828 4.40419 22.0676 3.70445 21.8282C3.00471 21.5888 2.24303 21.9609 2.00319 22.6595L4.53717 23.5266ZM0.575723 29.7154C0.523046 30.452 1.07847 31.0917 1.81629 31.1443C2.55412 31.1969 3.19495 30.6424 3.24762 29.9059L0.575723 29.7154ZM4.69557 41.4777C4.48199 40.7707 3.73474 40.3705 3.02654 40.5837C2.31835 40.7969 1.91738 41.5429 2.13097 42.2499L4.69557 41.4777ZM4.4171 48.5331C4.68272 49.2223 5.4577 49.5661 6.14807 49.3009C6.83844 49.0357 7.18276 48.262 6.91714 47.5728L4.4171 48.5331ZM11.0372 57.9186C10.751 57.2376 9.96603 56.9172 9.28397 57.203C8.6019 57.4887 8.28099 58.2723 8.56715 58.9532L11.0372 57.9186ZM11.1143 64.7433C11.4241 65.4138 12.2198 65.7066 12.8915 65.3974C13.5632 65.088 13.8565 64.2937 13.5466 63.6231L11.1143 64.7433ZM18.5981 73.4576C18.23 72.8171 17.4114 72.5958 16.7699 72.9635C16.1282 73.3306 15.9066 74.1482 16.2747 74.7886L18.5981 73.4576ZM19.6216 80.2124C20.03 80.8281 20.861 80.9973 21.4777 80.5895C22.0945 80.1817 22.2635 79.352 21.8552 78.7363L19.6216 80.2124ZM28.5137 87.4727C28.0256 86.9178 27.1794 86.863 26.6235 87.3503C26.0676 87.8377 26.0127 88.682 26.5007 89.2376L28.5137 87.4727ZM30.9353 93.8638C31.4696 94.3739 32.3174 94.3559 32.8289 93.8224C33.3404 93.2889 33.322 92.4425 32.7876 91.9318L30.9353 93.8638ZM41.2851 98.823C40.6744 98.4058 39.841 98.5623 39.4235 99.172C39.0061 99.7817 39.1627 100.613 39.7734 101.03L41.2851 98.823ZM45.2338 104.395C45.8806 104.753 46.6959 104.52 47.0548 103.874C47.4137 103.229 47.1804 102.415 46.5336 102.057L45.2338 104.395ZM56.5274 106.596C55.8325 106.343 55.0636 106.7 54.81 107.394C54.5563 108.087 54.914 108.855 55.6089 109.108L56.5274 106.596ZM61.7022 111.053C62.4151 111.25 63.153 110.833 63.3504 110.122C63.5479 109.41 63.1301 108.673 62.4172 108.476L61.7022 111.053ZM73.2122 110.727C72.4803 110.62 71.7999 111.125 71.6927 111.856C71.5856 112.587 72.0919 113.265 72.8238 113.372L73.2122 110.727ZM79.1576 114.1C79.8949 114.163 80.5432 113.618 80.6061 112.882C80.6691 112.146 80.1219 111.499 79.3853 111.436L79.1576 114.1ZM90.3927 111.849C89.6534 111.854 89.0574 112.457 89.0628 113.195C89.0674 113.934 89.6715 114.528 90.4108 114.523L90.3927 111.849ZM96.754 114.338C97.4926 114.301 98.0612 113.672 98.023 112.935C97.9855 112.197 97.356 111.63 96.6174 111.667L96.754 114.338ZM107.713 110.713C106.979 110.8 106.455 111.466 106.543 112.199C106.63 112.932 107.297 113.456 108.031 113.368L107.713 110.713ZM114.271 112.52C115.002 112.408 115.504 111.726 115.392 110.996C115.281 110.266 114.597 109.765 113.866 109.876L114.271 112.52ZM124.85 107.908C124.126 108.056 123.659 108.763 123.808 109.486C123.956 110.209 124.664 110.675 125.389 110.527L124.85 107.908ZM131.52 109.191C132.241 109.024 132.69 108.306 132.523 107.587C132.357 106.867 131.637 106.419 130.917 106.585L131.52 109.191ZM141.721 103.862C141.007 104.056 140.586 104.792 140.781 105.504C140.976 106.216 141.713 106.636 142.426 106.442L141.721 103.862ZM148.49 104.744C149.202 104.544 149.617 103.806 149.417 103.096C149.216 102.384 148.477 101.97 147.765 102.17L148.49 104.744ZM158.243 99.2896C157.529 99.4822 157.106 100.216 157.299 100.929C157.491 101.642 158.226 102.064 158.94 101.871L158.243 99.2896ZM164.814 100.312C165.53 100.125 165.958 99.3939 165.77 98.6799C165.583 97.9653 164.85 97.5381 164.135 97.7259L164.814 100.312ZM174.659 95.0411C173.941 95.2189 173.504 95.9443 173.682 96.661C173.86 97.3776 174.587 97.8142 175.305 97.6363L174.659 95.0411ZM181.248 96.1876C181.968 96.0158 182.411 95.2938 182.239 94.5758C182.067 93.8578 181.343 93.4152 180.624 93.5871L181.248 96.1876ZM191.213 91.1416C190.49 91.302 190.036 92.0167 190.196 92.7374C190.357 93.458 191.073 93.9126 191.795 93.7522L191.213 91.1416ZM197.752 92.4586C198.476 92.3055 198.938 91.5962 198.785 90.8735C198.632 90.1508 197.92 89.6895 197.197 89.8426L197.752 92.4586ZM207.861 87.6946C207.135 87.833 206.658 88.5336 206.797 89.259C206.936 89.9843 207.637 90.4597 208.364 90.3213L207.861 87.6946ZM214.344 89.2189C215.072 89.0898 215.557 88.3952 215.427 87.6685C215.298 86.9412 214.602 86.4572 213.874 86.5862L214.344 89.2189ZM224.622 84.8132C223.89 84.9242 223.388 85.6061 223.499 86.3362C223.61 87.0662 224.292 87.5683 225.024 87.4573L224.622 84.8132ZM231.033 86.5942C231.766 86.4953 232.279 85.8214 232.18 85.09C232.081 84.358 231.406 83.8452 230.673 83.9442L231.033 86.5942ZM241.503 82.6526C240.767 82.7281 240.231 83.3846 240.307 84.1193C240.383 84.854 241.04 85.3882 241.776 85.3126L241.503 82.6526ZM247.819 84.7564C248.556 84.6963 249.104 84.0505 249.044 83.3144C248.984 82.5783 248.338 82.0308 247.6 82.091L247.819 84.7564ZM258.493 81.4271C257.755 81.4559 257.179 82.0776 257.207 82.8157C257.237 83.5531 257.859 84.128 258.598 84.0993L258.493 81.4271ZM264.665 83.9428C265.405 83.9341 265.997 83.3284 265.988 82.5904C265.98 81.8517 265.373 81.2607 264.633 81.2694L264.665 83.9428ZM275.537 81.4365C274.798 81.4037 274.172 81.9753 274.139 82.7127C274.107 83.4508 274.679 84.0752 275.418 84.1079L275.537 81.4365ZM281.471 84.485C282.208 84.5452 282.855 83.997 282.915 83.2609C282.975 82.5249 282.425 81.8797 281.688 81.8196L281.471 84.485ZM292.57 83.1072C291.84 82.9915 291.153 83.4889 291.037 84.2183C290.922 84.9476 291.42 85.6329 292.15 85.7485L292.57 83.1072ZM298.084 86.8376C298.808 86.99 299.519 86.5274 299.671 85.8047C299.824 85.082 299.36 84.3727 298.636 84.2209L298.084 86.8376ZM309.245 87.0074C308.541 86.7821 307.787 87.1691 307.561 87.8724C307.335 88.5751 307.723 89.3285 308.427 89.5538L309.245 87.0074ZM314.09 91.5754C314.777 91.8475 315.556 91.5113 315.829 90.8247C316.101 90.1388 315.765 89.3613 315.077 89.0892L314.09 91.5754ZM325.035 93.807C324.391 93.4453 323.574 93.674 323.211 94.3178C322.849 94.9615 323.079 95.7765 323.724 96.1382L325.035 93.807ZM328.82 99.2796C329.433 99.6934 330.266 99.533 330.681 98.9219C331.095 98.3102 330.935 97.4786 330.322 97.0647L328.82 99.2796ZM338.968 103.935C338.427 103.432 337.579 103.461 337.075 104.001C336.571 104.541 336.599 105.387 337.141 105.891L338.968 103.935ZM341.333 110.157C341.827 110.706 342.674 110.752 343.224 110.258C343.774 109.764 343.82 108.919 343.326 108.37L341.333 110.157ZM350.053 117.102C349.647 116.485 348.816 116.314 348.198 116.719C347.58 117.125 347.409 117.954 347.814 118.571L350.053 117.102ZM350.908 123.699C351.265 124.346 352.08 124.582 352.727 124.225C353.375 123.87 353.611 123.056 353.254 122.409L350.908 123.699ZM357.937 132.337C357.662 131.651 356.883 131.318 356.196 131.591C355.509 131.865 355.175 132.643 355.449 133.329L357.937 132.337ZM357.51 138.924C357.751 139.621 358.514 139.992 359.213 139.751C359.912 139.51 360.283 138.749 360.042 138.051L357.51 138.924ZM363.219 148.146C363.017 147.435 362.276 147.023 361.565 147.225C360.853 147.427 360.441 148.167 360.643 148.877L363.219 148.146ZM362.164 154.539C362.345 155.255 363.073 155.69 363.79 155.508C364.507 155.328 364.942 154.601 364.761 153.885L362.164 154.539ZM367.083 164.194C366.939 163.47 366.235 162.999 365.509 163.142C364.783 163.285 364.311 163.989 364.455 164.713L367.083 164.194ZM365.515 170.488C365.638 171.216 366.329 171.706 367.058 171.584C367.788 171.461 368.279 170.771 368.157 170.043L365.515 170.488ZM369.655 180.502C369.569 179.768 368.903 179.243 368.169 179.33C367.434 179.416 366.908 180.081 366.995 180.814L369.655 180.502ZM367.603 186.652C367.668 187.387 368.319 187.93 369.057 187.864C369.793 187.798 370.336 187.148 370.27 186.413L367.603 186.652ZM370.96 196.959C370.93 196.221 370.306 195.647 369.567 195.677C368.828 195.707 368.253 196.33 368.283 197.068L370.96 196.959ZM368.441 202.933C368.451 203.671 369.058 204.262 369.798 204.252C370.537 204.243 371.129 203.637 371.119 202.898L368.441 202.933ZM370.997 213.463C371.023 212.725 370.446 212.105 369.707 212.078C368.968 212.052 368.346 212.628 368.319 213.366L370.997 213.463ZM368.023 219.228C367.975 219.965 368.535 220.601 369.273 220.648C370.012 220.696 370.648 220.137 370.696 219.4L368.023 219.228ZM369.746 229.925C369.831 229.191 369.305 228.527 368.57 228.443C367.835 228.358 367.171 228.883 367.086 229.617L369.746 229.925ZM366.324 235.435C366.217 236.165 366.724 236.844 367.456 236.95C368.188 237.057 368.868 236.551 368.975 235.82L366.324 235.435ZM367.173 246.236C367.318 245.512 366.848 244.808 366.123 244.662C365.397 244.517 364.692 244.987 364.546 245.711L367.173 246.236ZM363.303 251.443C363.136 252.163 363.585 252.881 364.305 253.049C365.025 253.216 365.745 252.768 365.912 252.049L363.303 251.443ZM363.226 262.277C363.434 261.568 363.027 260.826 362.317 260.618C361.607 260.411 360.863 260.817 360.656 261.526L363.226 262.277ZM358.914 267.124C358.683 267.826 359.065 268.582 359.768 268.812C360.471 269.042 361.227 268.661 361.458 267.959L358.914 267.124ZM357.851 277.907C358.123 277.221 357.787 276.444 357.1 276.171C356.412 275.899 355.634 276.235 355.361 276.921L357.851 277.907ZM353.102 282.329C352.806 283.005 353.115 283.794 353.792 284.09C354.47 284.386 355.26 284.078 355.557 283.401L353.102 282.329ZM350.997 292.957C351.336 292.301 351.079 291.494 350.422 291.155C349.765 290.816 348.957 291.073 348.617 291.729L350.997 292.957ZM345.828 296.88C345.464 297.523 345.691 298.339 346.335 298.703C346.979 299.066 347.796 298.839 348.16 298.196L345.828 296.88ZM342.63 307.234C343.037 306.617 342.866 305.788 342.249 305.381C341.631 304.975 340.801 305.145 340.394 305.762L342.63 307.234ZM337.071 310.582C336.64 311.183 336.777 312.018 337.378 312.448C337.979 312.879 338.816 312.742 339.247 312.142L337.071 310.582ZM332.753 320.521C333.227 319.954 333.151 319.111 332.582 318.638C332.014 318.165 331.169 318.242 330.696 318.809L332.753 320.521ZM326.85 323.227C326.353 323.774 326.395 324.62 326.943 325.116C327.491 325.612 328.338 325.57 328.835 325.023L326.85 323.227ZM321.424 332.601C321.96 332.092 321.982 331.246 321.472 330.711C320.963 330.176 320.115 330.154 319.578 330.663L321.424 332.601ZM315.246 334.603C314.688 335.089 314.631 335.933 315.118 336.49C315.604 337.046 316.45 337.103 317.007 336.618L315.246 334.603ZM308.756 343.279C309.348 342.837 309.469 341.999 309.026 341.408C308.582 340.816 307.743 340.696 307.151 341.138L308.756 343.279ZM302.398 344.574C301.798 345.005 301.66 345.841 302.092 346.44C302.523 347.04 303.36 347.178 303.961 346.747L302.398 344.574ZM295.632 352.752C296.23 352.318 296.363 351.482 295.928 350.884C295.493 350.287 294.656 350.155 294.057 350.589L295.632 352.752ZM289.369 354.003C288.773 354.439 288.643 355.276 289.08 355.871C289.517 356.468 290.355 356.597 290.952 356.16L289.369 354.003ZM282.692 362.246C283.285 361.805 283.408 360.968 282.967 360.375C282.525 359.782 281.687 359.659 281.093 360.1L282.692 362.246ZM276.46 363.558C275.869 364.002 275.749 364.84 276.194 365.431C276.638 366.021 277.478 366.139 278.069 365.696L276.46 363.558ZM269.867 371.912C270.454 371.463 270.564 370.623 270.114 370.038C269.663 369.451 268.823 369.341 268.236 369.791L269.867 371.912ZM263.648 373.329C263.064 373.783 262.959 374.623 263.413 375.205C263.867 375.788 264.709 375.893 265.293 375.44L263.648 373.329ZM257.226 381.794C257.803 381.332 257.897 380.491 257.434 379.914C256.972 379.338 256.129 379.246 255.551 379.707L257.226 381.794ZM251.044 383.347C250.472 383.815 250.387 384.657 250.856 385.229C251.324 385.8 252.167 385.885 252.74 385.418L251.044 383.347ZM244.871 391.975C245.434 391.495 245.5 390.652 245.019 390.09C244.539 389.529 243.693 389.462 243.131 389.942L244.871 391.975ZM238.738 393.748C238.183 394.237 238.13 395.082 238.619 395.636C239.109 396.189 239.955 396.242 240.51 395.754L238.738 393.748ZM232.954 402.649C233.49 402.14 233.511 401.293 233.001 400.759C232.49 400.224 231.643 400.204 231.108 400.712L232.954 402.649ZM226.937 404.793C226.418 405.319 226.423 406.165 226.949 406.684C227.475 407.203 228.323 407.198 228.843 406.673L226.937 404.793ZM221.983 414.151C222.455 413.584 222.378 412.741 221.81 412.269C221.241 411.796 220.397 411.873 219.924 412.44L221.983 414.151ZM216.323 417.116C215.899 417.721 216.048 418.555 216.654 418.977C217.261 419.401 218.095 419.253 218.519 418.647L216.323 417.116ZM214.142 427.331C214.318 426.613 213.878 425.889 213.16 425.714C212.441 425.538 211.716 425.977 211.54 426.694L214.142 427.331ZM211.408 433.525C211.518 434.256 212.201 434.758 212.932 434.648C213.663 434.538 214.167 433.857 214.056 433.127L211.408 433.525ZM218.836 443.474C218.336 442.928 217.489 442.891 216.943 443.389C216.397 443.887 216.359 444.733 216.858 445.277L218.836 443.474ZM222.83 449.69C223.499 450.006 224.297 449.722 224.614 449.054C224.931 448.387 224.646 447.59 223.978 447.273L222.83 449.69ZM235.339 448.851C234.604 448.936 234.078 449.6 234.163 450.334C234.249 451.067 234.914 451.592 235.649 451.507L235.339 448.851ZM242.339 449.918C243.024 449.64 243.353 448.859 243.073 448.175C242.794 447.492 242.013 447.163 241.327 447.443L242.339 449.918ZM248.44 440.967C248.107 441.626 248.371 442.43 249.031 442.763C249.692 443.096 250.497 442.832 250.831 442.173L248.44 440.967ZM252.675 435.939C252.763 435.207 252.24 434.541 251.506 434.453C250.771 434.364 250.104 434.887 250.016 435.62L252.675 435.939ZM248.822 425.575C249.059 426.274 249.819 426.65 250.52 426.414C251.221 426.178 251.597 425.419 251.361 424.719L248.822 425.575ZM248.749 418.963C248.38 418.322 247.561 418.101 246.921 418.469C246.279 418.836 246.057 419.653 246.426 420.294L248.749 418.963ZM239.94 412.235C240.483 412.736 241.331 412.702 241.832 412.159C242.334 411.617 242.3 410.77 241.757 410.27L239.94 412.235ZM236.816 406.388C236.201 405.976 235.369 406.142 234.957 406.755C234.546 407.368 234.711 408.199 235.326 408.61L236.816 406.388ZM225.974 403.966C226.672 404.211 227.436 403.846 227.683 403.151C227.929 402.454 227.564 401.69 226.866 401.444L225.974 403.966ZM220.936 399.647C220.227 399.437 219.481 399.841 219.272 400.549C219.062 401.258 219.467 402.001 220.176 402.211L220.936 399.647ZM209.651 399.077C210.361 399.284 211.105 398.878 211.313 398.169C211.52 397.461 211.113 396.718 210.403 396.511L209.651 399.077ZM204.443 394.82C203.73 394.624 202.993 395.043 202.797 395.755C202.601 396.467 203.02 397.203 203.733 397.398L204.443 394.82ZM193.125 394.719C193.846 394.884 194.564 394.434 194.729 393.714C194.894 392.994 194.442 392.277 193.722 392.112L193.125 394.719ZM187.618 390.821C186.892 390.68 186.189 391.152 186.047 391.877C185.906 392.602 186.38 393.304 187.106 393.445L187.618 390.821ZM176.348 391.727C177.081 391.817 177.75 391.295 177.84 390.562C177.929 389.829 177.407 389.162 176.673 389.073L176.348 391.727ZM170.452 388.463C169.715 388.409 169.073 388.962 169.019 389.698C168.965 390.435 169.52 391.076 170.258 391.13L170.452 388.463ZM159.409 390.888C160.148 390.864 160.728 390.245 160.704 389.507C160.679 388.769 160.06 388.191 159.321 388.215L159.409 390.888ZM153.056 388.642C152.32 388.72 151.787 389.378 151.864 390.112C151.942 390.847 152.601 391.379 153.337 391.302L153.056 388.642ZM142.733 393.223C143.448 393.033 143.874 392.301 143.683 391.587C143.494 390.874 142.76 390.448 142.045 390.638L142.733 393.223ZM136.029 392.56C135.337 392.821 134.988 393.593 135.25 394.284C135.511 394.974 136.284 395.323 136.976 395.061L136.029 392.56ZM127.388 399.805C128.013 399.411 128.201 398.585 127.807 397.961C127.412 397.336 126.586 397.148 125.96 397.542L127.388 399.805ZM120.809 401.22C120.233 401.684 120.144 402.526 120.609 403.1C121.074 403.675 121.917 403.764 122.492 403.3L120.809 401.22ZM114.901 410.823C115.372 410.254 115.292 409.411 114.721 408.941C114.151 408.471 113.307 408.552 112.836 409.121L114.901 410.823ZM109.073 414.181C108.662 414.796 108.828 415.625 109.444 416.036C110.059 416.446 110.891 416.28 111.301 415.665L109.073 414.181ZM106.062 425.058C106.373 424.387 106.081 423.593 105.409 423.283C104.738 422.973 103.942 423.264 103.631 423.935L106.062 425.058ZM101.205 429.726C100.944 430.417 101.294 431.188 101.986 431.449C102.678 431.709 103.451 431.36 103.711 430.669L101.205 429.726ZM100.467 440.979C100.651 440.264 100.221 439.535 99.5043 439.35C98.7884 439.166 98.0578 439.596 97.873 440.31L100.467 440.979ZM96.4674 446.378C96.3187 447.101 96.7854 447.808 97.51 447.957C98.2346 448.105 98.9425 447.639 99.0918 446.916L96.4674 446.378ZM97.3158 457.644C97.4102 456.912 96.8919 456.242 96.158 456.148C95.4247 456.053 94.753 456.572 94.6592 457.304L97.3158 457.644ZM28.6458 0.376953C27.5717 0.65459 26.4318 1.00205 25.2503 1.42106L26.147 3.94091C27.2572 3.54716 28.3221 3.22295 29.3173 2.96571L28.6458 0.376953ZM14.0885 7.21185C12.1942 8.56449 10.3641 10.1116 8.69284 11.8634L10.6326 13.7076C12.1743 12.0916 13.8734 10.6532 15.6469 9.38692L14.0885 7.21185ZM2.00319 22.6595C1.25243 24.846 0.755826 27.1971 0.575723 29.7154L3.24762 29.9059C3.41106 27.6205 3.8607 25.4968 4.53717 23.5266L2.00319 22.6595ZM2.13097 42.2499C2.46258 43.3475 2.8477 44.4666 3.28898 45.6075L5.78785 44.6443C5.36997 43.5639 5.00697 42.5085 4.69557 41.4777L2.13097 42.2499ZM3.28898 45.6075C3.65933 46.565 4.03429 47.5399 4.4171 48.5331L6.91714 47.5728C6.53522 46.5819 6.15898 45.6037 5.78785 44.6443L3.28898 45.6075ZM8.56715 58.9532C9.36975 60.8626 10.2152 62.7976 11.1143 64.7433L13.5466 63.6231C12.6629 61.7106 11.83 59.8047 11.0372 57.9186L8.56715 58.9532ZM16.2747 74.7886C17.3231 76.6124 18.4357 78.4248 19.6216 80.2124L21.8552 78.7363C20.7033 76.9995 19.6205 75.2365 18.5981 73.4576L16.2747 74.7886ZM26.5007 89.2376C27.8958 90.8233 29.3714 92.369 30.9353 93.8638L32.7876 91.9318C31.2822 90.4931 29.86 89.0036 28.5137 87.4727L26.5007 89.2376ZM39.7734 101.03C41.5069 102.213 43.325 103.338 45.2338 104.395L46.5336 102.057C44.6982 101.04 42.9507 99.9595 41.2851 98.823L39.7734 101.03ZM55.6089 109.108C57.5624 109.82 59.5922 110.47 61.7022 111.053L62.4172 108.476C60.3748 107.912 58.4129 107.283 56.5274 106.596L55.6089 109.108ZM72.8238 113.372C74.871 113.672 76.9811 113.916 79.1576 114.1L79.3853 111.436C77.2611 111.256 75.2045 111.018 73.2122 110.727L72.8238 113.372ZM90.4108 114.523C92.4727 114.509 94.5869 114.449 96.754 114.338L96.6174 111.667C94.4885 111.776 92.4145 111.836 90.3927 111.849L90.4108 114.523ZM108.031 113.368C110.068 113.126 112.148 112.843 114.271 112.52L113.866 109.876C111.772 110.195 109.721 110.473 107.713 110.713L108.031 113.368ZM125.389 110.527C127.397 110.116 129.441 109.671 131.52 109.191L130.917 106.585C128.858 107.06 126.836 107.501 124.85 107.908L125.389 110.527ZM142.426 106.442C143.454 106.161 144.491 105.873 145.536 105.577L144.804 103.005C143.768 103.298 142.74 103.584 141.721 103.862L142.426 106.442ZM145.536 105.577C146.523 105.297 147.507 105.02 148.49 104.744L147.765 102.17C146.78 102.446 145.793 102.725 144.804 103.005L145.536 105.577ZM158.94 101.871C160.909 101.342 162.867 100.823 164.814 100.312L164.135 97.7259C162.181 98.2374 160.217 98.7588 158.243 99.2896L158.94 101.871ZM175.305 97.6363C177.298 97.1416 179.279 96.659 181.248 96.1876L180.624 93.5871C178.648 94.0604 176.659 94.5451 174.659 95.0411L175.305 97.6363ZM191.795 93.7522C193.795 93.3076 195.78 92.8764 197.752 92.4586L197.197 89.8426C195.216 90.2624 193.221 90.6956 191.213 91.1416L191.795 93.7522ZM208.364 90.3213C210.372 89.9382 212.366 89.5705 214.344 89.2189L213.874 86.5862C211.885 86.9398 209.881 87.3095 207.861 87.6946L208.364 90.3213ZM225.024 87.4573C227.045 87.1504 229.048 86.863 231.033 86.5942L230.673 83.9442C228.673 84.2149 226.656 84.5051 224.622 84.8132L225.024 87.4573ZM241.776 85.3126C243.811 85.1047 245.826 84.9189 247.819 84.7564L247.6 82.091C245.589 82.2548 243.556 82.4426 241.503 82.6526L241.776 85.3126ZM258.598 84.0993C260.646 84.019 262.669 83.9669 264.665 83.9428L264.633 81.2694C262.612 81.2934 260.565 81.3462 258.493 81.4271L258.598 84.0993ZM275.418 84.1079C277.467 84.1982 279.485 84.3239 281.471 84.485L281.688 81.8196C279.668 81.6558 277.617 81.5281 275.537 81.4365L275.418 84.1079ZM292.15 85.7485C294.167 86.0681 296.145 86.4304 298.084 86.8376L298.636 84.2209C296.651 83.8044 294.629 83.4334 292.57 83.1072L292.15 85.7485ZM308.427 89.5538C310.362 90.1735 312.249 90.8467 314.09 91.5754L315.077 89.0892C313.179 88.3377 311.235 87.6445 309.245 87.0074L308.427 89.5538ZM323.724 96.1382C325.475 97.1209 327.175 98.1678 328.82 99.2796L330.322 97.0647C328.614 95.9109 326.851 94.8252 325.035 93.807L323.724 96.1382ZM337.141 105.891C338.593 107.243 339.991 108.664 341.333 110.157L343.326 108.37C341.931 106.819 340.478 105.342 338.968 103.935L337.141 105.891ZM347.814 118.571C348.896 120.213 349.927 121.923 350.908 123.699L353.254 122.409C352.241 120.573 351.174 118.804 350.053 117.102L347.814 118.571ZM355.449 133.329C355.822 134.26 356.183 135.206 356.532 136.168L359.05 135.255C358.691 134.268 358.32 133.295 357.937 132.337L355.449 133.329ZM356.532 136.168C356.865 137.082 357.191 138 357.51 138.924L360.042 138.051C359.718 137.114 359.388 136.183 359.05 135.255L356.532 136.168ZM360.643 148.877C361.176 150.749 361.683 152.637 362.164 154.539L364.761 153.885C364.274 151.957 363.76 150.043 363.219 148.146L360.643 148.877ZM364.455 164.713C364.835 166.627 365.188 168.552 365.515 170.488L368.157 170.043C367.825 168.083 367.467 166.133 367.083 164.194L364.455 164.713ZM366.995 180.814C367.224 182.753 367.427 184.699 367.603 186.652L370.27 186.413C370.093 184.435 369.887 182.464 369.655 180.502L366.995 180.814ZM368.283 197.068C368.363 199.019 368.415 200.975 368.441 202.933L371.119 202.898C371.094 200.915 371.04 198.935 370.96 196.959L368.283 197.068ZM368.319 213.366C368.248 215.32 368.149 217.274 368.023 219.228L370.696 219.4C370.825 217.421 370.924 215.442 370.997 213.463L368.319 213.366ZM367.086 229.617C366.86 231.559 366.606 233.499 366.324 235.435L368.975 235.82C369.261 233.858 369.518 231.893 369.746 229.925L367.086 229.617ZM364.546 245.711C364.161 247.628 363.747 249.539 363.303 251.443L365.912 252.049C366.362 250.118 366.782 248.18 367.173 246.236L364.546 245.711ZM360.656 261.526C360.105 263.402 359.524 265.269 358.914 267.124L361.458 267.959C362.079 266.076 362.668 264.181 363.226 262.277L360.656 261.526ZM355.361 276.921C354.639 278.738 353.886 280.541 353.102 282.329L355.557 283.401C356.354 281.583 357.118 279.752 357.851 277.907L355.361 276.921ZM348.617 291.729C347.719 293.463 346.79 295.181 345.828 296.88L348.16 298.196C349.138 296.467 350.084 294.72 350.997 292.957L348.617 291.729ZM340.394 305.762C339.319 307.389 338.211 308.996 337.071 310.582L339.247 312.142C340.409 310.526 341.536 308.89 342.63 307.234L340.394 305.762ZM330.696 318.809C329.447 320.305 328.166 321.778 326.85 323.227L328.835 325.023C330.175 323.546 331.481 322.045 332.753 320.521L330.696 318.809ZM319.578 330.663C318.167 332.001 316.723 333.316 315.246 334.603L317.007 336.618C318.514 335.305 319.985 333.966 321.424 332.601L319.578 330.663ZM307.151 341.138C306.368 341.723 305.577 342.301 304.777 342.872L306.336 345.046C307.151 344.465 307.957 343.875 308.756 343.279L307.151 341.138ZM304.777 342.872C303.979 343.443 303.186 344.01 302.398 344.574L303.961 346.747C304.747 346.183 305.539 345.617 306.336 345.046L304.777 342.872ZM294.057 350.589C292.469 351.741 290.907 352.879 289.369 354.003L290.952 356.16C292.487 355.038 294.047 353.902 295.632 352.752L294.057 350.589ZM281.093 360.1C279.52 361.269 277.975 362.422 276.46 363.558L278.069 365.696C279.581 364.562 281.122 363.412 282.692 362.246L281.093 360.1ZM268.236 369.791C266.672 370.989 265.142 372.168 263.648 373.329L265.293 375.44C266.782 374.283 268.307 373.107 269.867 371.912L268.236 369.791ZM255.551 379.707C254.006 380.944 252.504 382.157 251.044 383.347L252.74 385.418C254.192 384.233 255.687 383.026 257.226 381.794L255.551 379.707ZM243.131 389.942C241.609 391.241 240.144 392.51 238.738 393.748L240.51 395.754C241.905 394.524 243.359 393.266 244.871 391.975L243.131 389.942ZM231.108 400.712C229.632 402.116 228.242 403.475 226.937 404.793L228.843 406.673C230.126 405.376 231.497 404.036 232.954 402.649L231.108 400.712ZM219.924 412.44C218.562 414.073 217.362 415.63 216.323 417.116L218.519 418.647C219.509 417.233 220.661 415.736 221.983 414.151L219.924 412.44ZM211.54 426.694C211.271 427.791 211.132 428.849 211.132 429.866H213.811C213.811 429.091 213.917 428.248 214.142 427.331L211.54 426.694ZM211.132 429.866C211.132 431.085 211.224 432.311 211.408 433.525L214.056 433.127C213.893 432.044 213.811 430.951 213.811 429.866H211.132ZM216.858 445.277C218.495 447.066 220.486 448.58 222.83 449.69L223.978 447.273C221.96 446.319 220.248 445.017 218.836 443.474L216.858 445.277ZM235.649 451.507C236.801 451.372 237.992 451.168 239.219 450.892L238.629 448.283C237.489 448.541 236.393 448.728 235.339 448.851L235.649 451.507ZM239.219 450.892C240.322 450.642 241.363 450.316 242.339 449.918L241.327 447.443C240.493 447.782 239.594 448.065 238.629 448.283L239.219 450.892ZM250.831 442.173C251.798 440.262 252.409 438.155 252.675 435.939L250.016 435.62C249.783 437.557 249.254 439.359 248.44 440.967L250.831 442.173ZM251.361 424.719C250.706 422.783 249.834 420.851 248.749 418.963L246.426 420.294C247.426 422.035 248.225 423.808 248.822 425.575L251.361 424.719ZM241.757 410.27C240.259 408.89 238.611 407.588 236.816 406.388L235.326 408.61C237.006 409.733 238.544 410.949 239.94 412.235L241.757 410.27ZM226.866 401.444C225.899 401.104 224.905 400.789 223.886 400.501L223.157 403.074C224.122 403.346 225.061 403.644 225.974 403.966L226.866 401.444ZM223.886 400.501C222.954 400.238 221.97 399.952 220.936 399.647L220.176 402.211C221.216 402.518 222.212 402.808 223.157 403.074L223.886 400.501ZM210.403 396.511C208.494 395.954 206.503 395.385 204.443 394.82L203.733 397.398C205.776 397.959 207.753 398.523 209.651 399.077L210.403 396.511ZM193.722 392.112C191.723 391.657 189.686 391.223 187.618 390.821L187.106 393.445C189.143 393.842 191.152 394.27 193.125 394.719L193.722 392.112ZM176.673 389.073C174.613 388.821 172.537 388.615 170.452 388.463L170.258 391.13C172.295 391.278 174.327 391.481 176.348 391.727L176.673 389.073ZM159.321 388.215C157.226 388.284 155.136 388.423 153.056 388.642L153.337 391.302C155.348 391.09 157.374 390.955 159.409 390.888L159.321 388.215ZM142.045 390.638C140.012 391.177 138.004 391.815 136.029 392.56L136.976 395.061C138.862 394.35 140.784 393.74 142.733 393.223L142.045 390.638ZM125.96 397.542C124.196 398.651 122.477 399.874 120.809 401.22L122.492 403.3C124.077 402.021 125.711 400.858 127.388 399.805L125.96 397.542ZM112.836 409.121C111.53 410.7 110.274 412.385 109.073 414.181L111.301 415.665C112.452 413.943 113.654 412.331 114.901 410.823L112.836 409.121ZM103.631 423.935C102.776 425.778 101.967 427.708 101.205 429.726L103.711 430.669C104.451 428.709 105.236 426.84 106.062 425.058L103.631 423.935ZM97.873 440.31C97.3667 442.265 96.8979 444.287 96.4674 446.378L99.0918 446.916C99.513 444.867 99.9718 442.889 100.467 440.979L97.873 440.31ZM94.6592 457.304C94.5253 458.345 94.3994 459.402 94.2822 460.473L96.9448 460.763C97.0607 459.709 97.1846 458.669 97.3158 457.644L94.6592 457.304Z" fill="#2545DC"/>
<path d="M94.5642 475.426L103.013 469.762C103.665 469.325 103.838 468.443 103.401 467.792C102.963 467.141 102.079 466.968 101.427 467.405L92.9787 473.069C92.3268 473.506 92.1532 474.388 92.591 475.039C93.0288 475.69 93.9122 475.863 94.5642 475.426Z" fill="#2545DC"/>
<path d="M85.4833 467.691L92.1065 475.657C92.6081 476.26 93.5045 476.343 94.1088 475.843C94.7131 475.342 94.7963 474.447 94.2948 473.844L87.6715 465.878C87.17 465.274 86.2735 465.191 85.6692 465.692C85.065 466.193 84.9817 467.088 85.4833 467.691Z" fill="#2545DC"/>
</svg>
